<?xml version="1.0" encoding="UTF-8"?>
<svg version="1.1" xmlns="http://www.w3.org/2000/svg" width="1500" height="1500">
<path d="M0 0 C495 0 990 0 1500 0 C1500 495 1500 990 1500 1500 C1005 1500 510 1500 0 1500 C0 1005 0 510 0 0 Z " fill="#B5FE3B" transform="translate(0,0)"/>
<path d="M0 0 C24.35642617 -0.25709555 48.71264865 -0.45100293 73.07015896 -0.56993389 C84.3801608 -0.62662669 95.68931901 -0.70390072 106.9987793 -0.82983398 C116.85752796 -0.93956083 126.71566564 -1.01046051 136.57500798 -1.03497344 C141.79464018 -1.0493007 147.01252469 -1.08290484 152.23159599 -1.16303062 C157.1478989 -1.23789416 162.06174071 -1.26069044 166.97855949 -1.24418449 C168.77936703 -1.24720224 170.58025975 -1.26897435 172.38057327 -1.31126022 C185.97358357 -1.61477953 185.97358357 -1.61477953 191.01304817 2.40099144 C193.29566628 5.16496465 195.15831465 7.93100068 197 11 C198.03456586 12.27321629 199.09068373 13.52999986 200.1875 14.75 C200.65357666 15.28955322 201.11965332 15.82910645 201.59985352 16.38500977 C202.06190186 16.91795654 202.5239502 17.45090332 203 18 C207.32322071 23.01460679 211.55483217 28.09180247 215.73046875 33.23046875 C220.08505794 38.54441666 224.55078435 43.76526766 229 49 C234.9600827 56.01234558 240.87758795 63.04960805 246.6875 70.1875 C249.7243277 73.8809391 252.81960955 77.52298486 255.91625977 81.16625977 C258.7954532 84.55954109 261.63204237 87.98267786 264.4375 91.4375 C268.39508188 96.30129025 272.46542446 101.05881231 276.55834961 105.80834961 C280.33334391 110.1980035 284.00728461 114.66114771 287.65625 119.15625 C290.39302138 122.47686594 293.19106385 125.74043709 296 129 C300.31934272 134.01314773 304.55097277 139.08537515 308.72265625 144.22265625 C311.28203972 147.34396267 313.88589916 150.42453424 316.5 153.5 C319.85447127 157.44650481 323.17221829 161.41642072 326.4375 165.4375 C329.89274151 169.68392382 333.42697834 173.85296294 337 178 C341.32167542 183.01596403 345.55479041 188.09175108 349.73046875 193.23046875 C354.08505794 198.54441666 358.55078435 203.76526766 363 209 C368.96800755 216.02166958 374.90021458 223.06425813 380.71875 230.2109375 C384.77578806 235.17108335 388.89013645 240.0836079 393 245 C396.01388073 243.64941886 398.1034677 242.14395225 400.42578125 239.8046875 C401.05806641 239.17046875 401.69035156 238.53625 402.34179688 237.8828125 C402.99212891 237.22023438 403.64246094 236.55765625 404.3125 235.875 C404.95123047 235.235625 405.58996094 234.59625 406.24804688 233.9375 C409.41889952 230.73773381 412.48062749 227.4860619 415.41796875 224.0703125 C420.09371152 218.65934858 425.23213097 213.72142828 430.328125 208.7109375 C434.4765127 204.60488029 438.42299977 200.42189831 442.2265625 195.99609375 C446.15714065 191.57202892 450.463371 187.50019556 454.68359375 183.35546875 C458.04807892 180.02748794 461.3250592 176.68726995 464.40625 173.09375 C469.46963823 167.2086462 475.09035609 161.86621639 480.6171875 156.421875 C485.01317858 152.06596894 489.23412001 147.65823064 493.26171875 142.9609375 C497.17602419 138.54524912 501.47560834 134.48817714 505.68359375 130.35546875 C509.0688171 127.00697477 512.36445258 123.64339331 515.46875 120.03125 C520.11946199 114.62579389 525.24689496 109.706912 530.328125 104.7109375 C533.82054373 101.2541557 537.23804242 97.7939517 540.4375 94.0625 C545.48788651 88.18589818 551.10103744 82.85569447 556.6171875 77.421875 C561.02334351 73.0558967 565.2559486 68.63796861 569.29296875 63.9296875 C572.9925123 59.74759479 577.05488145 55.90785574 581.0390625 52 C584.2859466 48.7907246 587.43191023 45.55863129 590.40625 42.09375 C595.27611458 36.43984827 600.6580013 31.29710141 605.97265625 26.06640625 C610.23356273 21.84653579 614.35333278 17.59076119 618.21679688 13.00195312 C618.80525391 12.34130859 619.39371094 11.68066406 620 11 C620.73251984 9.98275848 621.46503967 8.96551697 622.21975708 7.91744995 C626.28333533 3.91934851 630.68591548 4.28935753 636.13879395 4.253479 C637.51490131 4.2747097 638.89099986 4.2965185 640.26708984 4.31884766 C641.72608368 4.32054134 643.18508262 4.31958768 644.64407349 4.31619263 C648.59445618 4.31447417 652.54374126 4.34969813 656.4938693 4.39163637 C660.62578962 4.42919633 664.75773633 4.43267285 668.88980103 4.43978882 C676.70968895 4.45842232 684.52907235 4.50763869 692.34873831 4.56788576 C701.25311063 4.63499779 710.1575073 4.66795163 719.06206965 4.69805837 C737.37499892 4.76073938 755.68745887 4.86624493 774 5 C773.06782632 6.10031349 772.13377809 7.199039 771.19897461 8.29711914 C770.67903427 8.90914688 770.15909393 9.52117462 769.62339783 10.15174866 C766.57798699 13.61897312 763.24416086 16.79640997 759.94335938 20.01757812 C757.06302166 22.85642238 754.31831824 25.74702491 751.68359375 28.81640625 C746.77711548 34.49519425 741.3725945 39.67278614 736.02734375 44.93359375 C731.74495126 49.17474329 727.64975845 53.48023202 723.72460938 58.05273438 C720.01697313 62.2390462 715.95123428 66.08614569 711.9609375 70 C708.70370022 73.21950866 705.54829194 76.46324901 702.5625 79.9375 C697.89913255 85.35165903 692.76373426 90.28263712 687.671875 95.2890625 C684.16907073 98.75612387 680.74236279 102.22804602 677.53125 105.96875 C672.68703971 111.60544631 667.32068928 116.72387138 662.02734375 121.93359375 C657.75511487 126.16467757 653.67158655 130.45995783 649.75585938 135.02148438 C645.83339422 139.44134778 641.53051398 143.50581006 637.31640625 147.64453125 C633.92081439 151.00328124 630.61582231 154.37852424 627.5 158 C623.05564748 163.16560744 618.17492912 167.87292293 613.31640625 172.64453125 C609.95192108 175.97251206 606.6749408 179.31273005 603.59375 182.90625 C598.53036177 188.7913538 592.90964391 194.13378361 587.3828125 199.578125 C582.97665649 203.9441033 578.7440514 208.36203139 574.70703125 213.0703125 C571.0074877 217.25240521 566.94511855 221.09214426 562.9609375 225 C559.69334698 228.22974198 556.52847667 231.48511625 553.53125 234.96875 C549.07439395 240.14314977 544.1855361 244.86250569 539.31640625 249.64453125 C535.94155178 252.98276885 532.65525373 256.33467539 529.5625 259.9375 C524.70544312 265.58278782 519.33134671 270.71338231 514.02734375 275.93359375 C510.39660828 279.52936227 506.82942643 283.12146956 503.5 287 C498.66867614 292.62812757 493.31002622 297.73436598 488.02734375 302.93359375 C483.69504315 307.22417075 479.53924323 311.57855091 475.56787109 316.20507812 C473.33952108 318.75612597 470.97421277 321.12132439 468.5625 323.5 C467.26505859 324.78390625 467.26505859 324.78390625 465.94140625 326.09375 C465.30074219 326.7228125 464.66007812 327.351875 464 328 C465.28923981 330.78823237 466.68619531 332.98996602 468.72265625 335.28515625 C469.25640869 335.89238525 469.79016113 336.49961426 470.34008789 337.12524414 C470.90848389 337.76453857 471.47687988 338.40383301 472.0625 339.0625 C473.25119122 340.41562113 474.43868682 341.7697935 475.625 343.125 C476.20507812 343.78757812 476.78515625 344.45015625 477.3828125 345.1328125 C479.49313899 347.56937304 481.53442314 350.05722858 483.5625 352.5625 C486.97137147 356.77198715 490.46403364 360.89757094 494 365 C498.31939586 370.01310059 502.55097436 375.0853771 506.72265625 380.22265625 C509.28203972 383.34396267 511.88589916 386.42453424 514.5 389.5 C517.85447127 393.44650481 521.17221829 397.41642072 524.4375 401.4375 C528.39508188 406.30129025 532.46542446 411.05881231 536.55834961 415.80834961 C540.33334391 420.1980035 544.00728461 424.66114771 547.65625 429.15625 C550.39302049 432.47686486 553.1910295 435.74046782 556 439 C560.29972713 443.98940767 564.50485409 449.04221156 568.65625 454.15625 C571.39302138 457.47686594 574.19106385 460.74043709 577 464 C581.32172863 469.01591689 585.55479196 474.09175299 589.73046875 479.23046875 C594.08505794 484.54441666 598.55078435 489.76526766 603 495 C608.96246463 502.01514804 614.88077939 509.05647291 620.6953125 516.1953125 C625.06756951 521.51612696 629.54007144 526.75266336 634 532 C639.19219022 538.10888035 644.38123581 544.21510641 649.4375 550.4375 C652.89274151 554.68392382 656.42697834 558.85296294 660 563 C664.32167542 568.01596403 668.55479041 573.09175108 672.73046875 578.23046875 C677.08505794 583.54441666 681.55078435 588.76526766 686 594 C691.19219022 600.10888035 696.38123581 606.21510641 701.4375 612.4375 C704.89274304 616.6839257 708.42702204 620.85292359 712 625 C716.3281645 630.02447878 720.58003612 635.09975102 724.75390625 640.25390625 C726.41072412 642.27954619 728.08221557 644.28427337 729.77734375 646.27734375 C730.24124512 646.82503418 730.70514648 647.37272461 731.18310547 647.93701172 C732.49502653 649.48298878 733.81183649 651.02481318 735.12890625 652.56640625 C737 655 737 655 737 657 C712.64357383 657.25709555 688.28735135 657.45100293 663.92984104 657.56993389 C652.6198392 657.62662669 641.31068099 657.70390072 630.0012207 657.82983398 C620.14247204 657.93956083 610.28433436 658.01046051 600.42499202 658.03497344 C595.20535982 658.0493007 589.98747531 658.08290484 584.76840401 658.16303062 C579.8521011 658.23789416 574.93825929 658.26069044 570.02144051 658.24418449 C568.22063297 658.24720224 566.41974025 658.26897435 564.61942673 658.31126022 C551.02513796 658.61480808 551.02513796 658.61480808 545.9792614 654.59131813 C543.69739773 651.82943991 541.83345223 649.07143096 540 646 C539.0388125 644.79961717 538.05299963 643.61802283 537.03125 642.46875 C532.82666246 637.53744362 528.6478796 632.59350092 524.5625 627.5625 C520.60491812 622.69870975 516.53457554 617.94118769 512.44165039 613.19165039 C508.66665609 608.8019965 504.99271539 604.33885229 501.34375 599.84375 C498.60697862 596.52313406 495.80893615 593.25956291 493 590 C488.67827137 584.98408311 484.44520804 579.90824701 480.26953125 574.76953125 C475.91494206 569.45558334 471.44921565 564.23473234 467 559 C461.80780978 552.89111965 456.61876419 546.78489359 451.5625 540.5625 C448.10725849 536.31607618 444.57302166 532.14703706 441 528 C436.68071044 522.98680512 432.44902881 517.9146268 428.27734375 512.77734375 C425.71796028 509.65603733 423.11410084 506.57546576 420.5 503.5 C417.14552873 499.55349519 413.82778171 495.58357928 410.5625 491.5625 C406.60491812 486.69870975 402.53457554 481.94118769 398.44165039 477.19165039 C394.66665609 472.8019965 390.99271539 468.33885229 387.34375 463.84375 C384.10846227 459.91826755 380.79073638 456.06592876 377.45898438 452.22216797 C375.03392766 449.41498582 372.65333894 446.59211124 370.375 443.6640625 C369.59125 442.66117188 368.8075 441.65828125 368 440.625 C367.319375 439.73039062 366.63875 438.83578125 365.9375 437.9140625 C363.97965507 435.53147274 363.97965507 435.53147274 360 436 C358.01178244 437.46353492 358.01178244 437.46353492 356.1875 439.5 C355.56230469 440.1496875 354.93710937 440.799375 354.29296875 441.46875 C352.41832754 443.5382006 350.59149756 445.63470597 348.76953125 447.75 C344.21185289 452.97826554 339.26201942 457.78739059 334.31640625 462.64453125 C330.92081439 466.00328124 327.61582231 469.37852424 324.5 473 C320.05564748 478.16560744 315.17492912 482.87292293 310.31640625 487.64453125 C306.9311829 490.99302523 303.63554742 494.35660669 300.53125 497.96875 C295.88053801 503.37420611 290.75310504 508.293088 285.671875 513.2890625 C282.158686 516.76640264 278.72274736 520.25002899 275.5 524 C270.86197988 529.39677457 265.74247097 534.30354364 260.671875 539.2890625 C257.17945627 542.7458443 253.76195758 546.2060483 250.5625 549.9375 C245.51211349 555.81410182 239.89896256 561.14430553 234.3828125 566.578125 C229.96648953 570.95417755 225.72222242 575.38229387 221.67578125 580.1015625 C218.19059374 584.04981688 214.36598955 587.67248446 210.60546875 591.35546875 C207.49691454 594.42540738 204.50073222 597.52629767 201.65625 600.84375 C196.56698156 606.74592746 190.93098865 612.11275745 185.3828125 617.578125 C180.97665649 621.9441033 176.7440514 626.36203139 172.70703125 631.0703125 C169.0074877 635.25240521 164.94511855 639.09214426 160.9609375 643 C160.29320312 643.66 159.62546875 644.32 158.9375 645 C158.05384766 645.86625 158.05384766 645.86625 157.15234375 646.75 C155.01425897 648.83926621 155.01425897 648.83926621 153.76412868 650.93779755 C151.25653992 654.52576023 149.34117265 656.67421894 144.99827766 657.72914124 C141.19223196 657.98542413 137.42897928 657.99084861 133.61938477 657.90820312 C132.16024399 657.90594422 130.70109413 657.90721774 129.24195862 657.91174316 C125.29541402 657.91403205 121.3508275 657.86711103 117.40473676 657.8111515 C113.27553657 657.76102859 109.14628791 657.75643293 105.01683044 657.74694824 C97.20386972 657.72211572 89.39180805 657.656512 81.57924265 657.57615232 C72.68215808 657.4866304 63.78502981 657.44272159 54.88760674 657.40258884 C36.59122873 657.31904204 18.29568673 657.17839312 0 657 C0.96024775 655.87295907 1.92144971 654.74673109 2.88305664 653.62084961 C3.41822403 652.99359482 3.95339142 652.36634003 4.504776 651.72007751 C6.07501756 649.91370121 7.71117279 648.21994632 9.4375 646.5625 C11.81482512 644.23493285 14.03508973 641.84134255 16.19140625 639.30859375 C20.75786285 634.05532467 25.72049274 629.22978442 30.68359375 624.35546875 C34.04807892 621.02748794 37.3250592 617.68726995 40.40625 614.09375 C45.46963823 608.2086462 51.09035609 602.86621639 56.6171875 597.421875 C61.00301569 593.07603917 65.21229182 588.67849221 69.23046875 583.9921875 C73.35991893 579.34313762 77.89621056 575.06849096 82.328125 570.7109375 C85.841314 567.23359736 89.27725264 563.74997101 92.5 560 C97.13802012 554.60322543 102.25752903 549.69645636 107.328125 544.7109375 C111.48667556 540.59482113 115.44482818 536.40161122 119.2578125 531.96484375 C122.97349533 527.77428666 127.04265713 523.91984588 131.0390625 520 C134.27559341 516.80095786 137.41213025 513.5805249 140.375 510.125 C145.45134854 504.23137086 151.0796808 498.87673235 156.6171875 493.421875 C161.00301569 489.07603917 165.21229182 484.67849221 169.23046875 479.9921875 C173.35991893 475.34313762 177.89621056 471.06849096 182.328125 466.7109375 C186.46790327 462.61340186 190.4051215 458.4394626 194.20019531 454.02246094 C197.58382111 450.22024226 201.24623563 446.69119947 204.875 443.125 C206.39550816 441.62991839 207.91385411 440.13263356 209.4296875 438.6328125 C210.42331299 437.65658936 210.42331299 437.65658936 211.43701172 436.66064453 C213.08544452 435.06857485 213.08544452 435.06857485 214 433 C262.51 432.67 311.02 432.34 361 432 C358.03 428.7 355.06 425.4 352 422 C350.52334217 420.24441791 349.06021312 418.47712289 347.625 416.6875 C344.33576152 412.62734625 341.00502133 408.60944728 337.625 404.625 C337.16512695 404.08270752 336.70525391 403.54041504 336.23144531 402.98168945 C334.82167288 401.32052232 333.41100496 399.66012031 332 398 C326.03753537 390.98485196 320.11922061 383.94352709 314.3046875 376.8046875 C309.93243049 371.48387304 305.45992856 366.24733664 301 361 C295.80780978 354.89111965 290.61876419 348.78489359 285.5625 342.5625 C282.10725849 338.31607618 278.57302166 334.14703706 275 330 C270.67832458 324.98403597 266.44520959 319.90824892 262.26953125 314.76953125 C257.91494206 309.45558334 253.44921565 304.23473234 249 299 C243.80780978 292.89111965 238.61876419 286.78489359 233.5625 280.5625 C230.10725849 276.31607618 226.57302166 272.14703706 223 268 C218.67832458 262.98403597 214.44520959 257.90824892 210.26953125 252.76953125 C205.91494206 247.45558334 201.44921565 242.23473234 197 237 C191.03753537 229.98485196 185.11922061 222.94352709 179.3046875 215.8046875 C174.93243049 210.48387304 170.45992856 205.24733664 166 200 C160.80780978 193.89111965 155.61876419 187.78489359 150.5625 181.5625 C147.10725849 177.31607618 143.57302166 173.14703706 140 169 C135.67832458 163.98403597 131.44520959 158.90824892 127.26953125 153.76953125 C122.91494206 148.45558334 118.44921565 143.23473234 114 138 C108.80780978 131.89111965 103.61876419 125.78489359 98.5625 119.5625 C95.10725849 115.31607618 91.57302166 111.14703706 88 107 C83.68071044 101.98680512 79.44902881 96.9146268 75.27734375 91.77734375 C72.71796028 88.65603733 70.11410084 85.57546576 67.5 82.5 C64.14552873 78.55349519 60.82778171 74.58357928 57.5625 70.5625 C53.60491812 65.69870975 49.53457554 60.94118769 45.44165039 56.19165039 C41.66665609 51.8019965 37.99271539 47.33885229 34.34375 42.84375 C31.60697862 39.52313406 28.80893615 36.25956291 26 33 C21.69139913 27.99931956 17.46609023 22.94340557 13.3125 17.8125 C11.56367535 15.68555111 9.79611707 13.58639862 8 11.5 C7.49154541 10.90775635 6.98309082 10.3155127 6.45922852 9.70532227 C5.46126747 8.54597109 4.45927787 7.39007289 3.45288086 6.23803711 C0 2.22111768 0 2.22111768 0 0 Z " fill="#0A2E1F" transform="translate(363,411)"/>
</svg>
